# xmcd
#
# Track frame offsets:
#	150
#	27967
#	59003
#	86691
#	114774
#	136340
#	164545
#	195628
#	220399
#	243580
#	267700
#	282628
#	304438
# Disc length: 4317 seconds
# Revision: 3
# Processed by: cddbd v1.5.2PL0 Copyright (c) Steve Scherf et al.
#
# Submitted via: libkcddb 0.31
#
DISCID=cf10db0d
DTITLE=Various Artist - Cohen Live
DYEAR=1900
DGENRE=Unknown
TTITLE0=Dance Me to the End of Love
TTITLE1=Bird On the Wire
TTITLE2=Everybody Knows
TTITLE3=Joan of Arc
TTITLE4=There is a War
TTITLE5=Sisters of Mercy
TTITLE6=Hallelujah
TTITLE7=I'm Your Man
TTITLE8=Who by Fire?
TTITLE9=One of Us Cannot Be Wrong
TTITLE10=If It Be Your Will
TTITLE11=Heart with No Companion
TTITLE12=Suzanne
EXTD=
EXTT0=
EXTT1=
EXTT2=
EXTT3=
EXTT4=
EXTT5=
EXTT6=
EXTT7=
EXTT8=
EXTT9=
EXTT10=
EXTT11=
EXTT12=
PLAYORDER=
